<svg id="visual" viewBox="0 0 900 450" width="900" height="450" xmlns="http://www.w3.org/2000/svg" xmlns:xlink="http://www.w3.org/1999/xlink" version="1.1"><rect x="0" y="0" width="900" height="450" fill="#001220"></rect><path d="M0 213L21.5 214.8C43 216.7 86 220.3 128.8 209.5C171.7 198.7 214.3 173.3 257.2 171.7C300 170 343 192 385.8 192.3C428.7 192.7 471.3 171.3 514.2 157.3C557 143.3 600 136.7 642.8 133.7C685.7 130.7 728.3 131.3 771.2 141.5C814 151.7 857 171.3 878.5 181.2L900 191L900 451L878.5 451C857 451 814 451 771.2 451C728.3 451 685.7 451 642.8 451C600 451 557 451 514.2 451C471.3 451 428.7 451 385.8 451C343 451 300 451 257.2 451C214.3 451 171.7 451 128.8 451C86 451 43 451 21.5 451L0 451Z" fill="#fa7268"></path><path d="M0 216L21.5 209.5C43 203 86 190 128.8 194C171.7 198 214.3 219 257.2 224.8C300 230.7 343 221.3 385.8 215.5C428.7 209.7 471.3 207.3 514.2 209.8C557 212.3 600 219.7 642.8 232.3C685.7 245 728.3 263 771.2 264.8C814 266.7 857 252.3 878.5 245.2L900 238L900 451L878.5 451C857 451 814 451 771.2 451C728.3 451 685.7 451 642.8 451C600 451 557 451 514.2 451C471.3 451 428.7 451 385.8 451C343 451 300 451 257.2 451C214.3 451 171.7 451 128.8 451C86 451 43 451 21.5 451L0 451Z" fill="#ef5f67"></path><path d="M0 259L21.5 267.8C43 276.7 86 294.3 128.8 301.2C171.7 308 214.3 304 257.2 306.2C300 308.3 343 316.7 385.8 317.5C428.7 318.3 471.3 311.7 514.2 308.2C557 304.7 600 304.3 642.8 302.2C685.7 300 728.3 296 771.2 296.5C814 297 857 302 878.5 304.5L900 307L900 451L878.5 451C857 451 814 451 771.2 451C728.3 451 685.7 451 642.8 451C600 451 557 451 514.2 451C471.3 451 428.7 451 385.8 451C343 451 300 451 257.2 451C214.3 451 171.7 451 128.8 451C86 451 43 451 21.5 451L0 451Z" fill="#e34c67"></path><path d="M0 366L21.5 363.3C43 360.7 86 355.3 128.8 354.8C171.7 354.3 214.3 358.7 257.2 360.8C300 363 343 363 385.8 351C428.7 339 471.3 315 514.2 311.3C557 307.7 600 324.3 642.8 335C685.7 345.7 728.3 350.3 771.2 348.5C814 346.7 857 338.3 878.5 334.2L900 330L900 451L878.5 451C857 451 814 451 771.2 451C728.3 451 685.7 451 642.8 451C600 451 557 451 514.2 451C471.3 451 428.7 451 385.8 451C343 451 300 451 257.2 451C214.3 451 171.7 451 128.8 451C86 451 43 451 21.5 451L0 451Z" fill="#d53867"></path><path d="M0 353L21.5 352.7C43 352.3 86 351.7 128.8 358.5C171.7 365.3 214.3 379.7 257.2 387C300 394.3 343 394.7 385.8 390.2C428.7 385.7 471.3 376.3 514.2 375.2C557 374 600 381 642.8 378.8C685.7 376.7 728.3 365.3 771.2 362.8C814 360.3 857 366.7 878.5 369.8L900 373L900 451L878.5 451C857 451 814 451 771.2 451C728.3 451 685.7 451 642.8 451C600 451 557 451 514.2 451C471.3 451 428.7 451 385.8 451C343 451 300 451 257.2 451C214.3 451 171.7 451 128.8 451C86 451 43 451 21.5 451L0 451Z" fill="#c62368"></path></svg>