<svg id="visual" viewBox="0 0 960 540" width="960" height="540" xmlns="http://www.w3.org/2000/svg" xmlns:xlink="http://www.w3.org/1999/xlink" version="1.1"><rect x="0" y="0" width="960" height="540" fill="#002233"></rect><path d="M0 360L22.8 370C45.7 380 91.3 400 137 407.2C182.7 414.3 228.3 408.7 274 401.7C319.7 394.7 365.3 386.3 411.2 379.2C457 372 503 366 548.8 379.5C594.7 393 640.3 426 686 428.7C731.7 431.3 777.3 403.7 823 402.3C868.7 401 914.3 426 937.2 438.5L960 451L960 541L937.2 541C914.3 541 868.7 541 823 541C777.3 541 731.7 541 686 541C640.3 541 594.7 541 548.8 541C503 541 457 541 411.2 541C365.3 541 319.7 541 274 541C228.3 541 182.7 541 137 541C91.3 541 45.7 541 22.8 541L0 541Z" fill="#F7770F" stroke-linecap="round" stroke-linejoin="miter"></path></svg>